<?xml version="1.0" standalone="no"?>
<!DOCTYPE svg PUBLIC "-//W3C//DTD SVG 20010904//EN"
 "http://www.w3.org/TR/2001/REC-SVG-20010904/DTD/svg10.dtd">
<svg version="1.0" xmlns="http://www.w3.org/2000/svg"
 width="1120.000000pt" height="1120.000000pt" viewBox="0 0 1120.000000 1120.000000"
 preserveAspectRatio="xMidYMid meet">
<metadata>
Created by potrace 1.14, written by Peter Selinger 2001-2017
</metadata>
<g transform="translate(0.000000,1120.000000) scale(0.100000,-0.100000)"
fill="#000000" stroke="none">
<path d="M5443 11180 c-63 -15 -198 -72 -213 -89 -3 -3 -22 -15 -42 -26 -113
-62 -214 -119 -218 -124 -5 -6 -65 -39 -135 -75 -22 -12 -42 -24 -45 -27 -3
-4 -72 -44 -155 -91 -207 -116 -199 -112 -207 -123 -4 -5 -8 -6 -8 -1 0 5 -8
2 -17 -6 -10 -8 -38 -26 -63 -39 -25 -13 -47 -26 -50 -29 -3 -3 -21 -13 -40
-23 -64 -34 -95 -52 -100 -58 -3 -3 -18 -12 -35 -21 -16 -8 -47 -24 -67 -36
-21 -12 -55 -32 -75 -43 -21 -12 -51 -30 -68 -41 -16 -10 -38 -21 -47 -24 -10
-4 -18 -10 -18 -15 0 -5 -5 -9 -10 -9 -6 0 -48 -21 -93 -47 -45 -26 -93 -53
-107 -60 -14 -8 -38 -23 -55 -33 -16 -10 -52 -31 -80 -46 -27 -14 -62 -35 -77
-45 -14 -11 -28 -19 -31 -19 -2 0 -66 -36 -142 -80 -76 -44 -139 -80 -140 -80
-3 0 -123 -70 -155 -90 -8 -5 -31 -18 -50 -28 -19 -10 -91 -51 -160 -92 -69
-40 -138 -80 -155 -88 -16 -9 -41 -24 -54 -34 -13 -10 -27 -15 -32 -12 -5 3
-9 1 -9 -4 0 -5 -10 -14 -22 -20 -13 -6 -50 -27 -83 -47 -33 -19 -71 -40 -85
-46 -13 -6 -27 -13 -30 -17 -7 -10 -40 -30 -68 -42 -13 -6 -56 -30 -95 -53
-40 -24 -79 -47 -87 -50 -8 -4 -28 -16 -45 -27 -16 -10 -50 -29 -75 -42 -25
-13 -46 -26 -48 -30 -2 -5 -10 -8 -18 -8 -8 0 -14 -5 -14 -11 0 -5 -5 -7 -10
-4 -5 3 -10 1 -10 -5 0 -6 -4 -8 -10 -5 -5 3 -10 2 -10 -3 0 -5 -8 -12 -17
-15 -10 -4 -36 -18 -58 -32 -22 -13 -51 -30 -65 -37 -14 -7 -49 -27 -77 -46
-29 -18 -53 -29 -53 -25 0 4 -7 -2 -15 -13 -8 -10 -15 -15 -15 -11 0 5 -13 -1
-29 -12 -16 -12 -34 -21 -39 -21 -6 0 -12 -3 -14 -7 -3 -9 -32 -26 -126 -74
-34 -18 -62 -36 -62 -41 0 -4 -4 -8 -9 -8 -10 0 -175 -93 -254 -143 -56 -36
-109 -85 -174 -160 -17 -20 -29 -37 -27 -37 2 0 -9 -24 -25 -52 -29 -52 -53
-117 -68 -180 -10 -42 -10 -5141 -1 -5190 30 -149 126 -305 246 -400 22 -18
203 -127 284 -171 25 -14 64 -37 86 -51 22 -14 43 -22 46 -19 3 4 6 2 6 -3 0
-6 22 -21 50 -35 27 -13 50 -27 50 -31 0 -5 4 -8 9 -8 9 0 94 -47 156 -85 11
-7 25 -13 30 -15 6 -1 28 -15 50 -30 22 -15 45 -29 50 -31 6 -2 45 -24 88 -49
43 -25 90 -51 105 -59 15 -8 29 -17 32 -21 3 -4 21 -15 40 -24 19 -8 42 -20
50 -26 34 -23 379 -220 385 -220 3 0 21 -11 39 -25 18 -14 36 -22 39 -18 4 3
7 1 7 -5 0 -7 7 -12 15 -12 8 0 15 -5 15 -10 0 -6 3 -9 8 -8 6 2 116 -59 242
-136 19 -11 37 -21 40 -22 3 0 22 -10 42 -23 20 -12 40 -22 44 -21 4 1 10 -2
13 -7 5 -8 281 -169 421 -246 30 -17 57 -33 60 -36 3 -3 21 -14 40 -24 19 -9
58 -31 85 -47 28 -17 59 -35 70 -40 11 -6 27 -14 35 -20 50 -32 153 -90 160
-90 5 0 15 -6 22 -13 13 -12 36 -25 108 -64 19 -10 40 -24 48 -30 7 -7 24 -16
38 -19 13 -3 24 -10 24 -14 0 -4 15 -13 33 -21 17 -7 34 -15 37 -18 5 -7 34
-23 93 -55 20 -11 37 -24 37 -28 0 -5 4 -7 8 -4 5 3 24 -5 43 -18 19 -13 57
-35 84 -50 28 -15 66 -37 85 -48 205 -120 362 -208 369 -208 5 0 11 -3 13 -7
4 -9 48 -36 98 -61 19 -9 37 -19 40 -22 3 -3 14 -10 25 -16 56 -30 91 -50 95
-54 4 -4 39 -24 95 -54 11 -6 22 -13 25 -16 5 -5 132 -68 165 -82 57 -23 156
-37 250 -34 56 1 106 5 112 9 5 3 25 9 44 12 40 7 274 120 299 145 3 3 16 11
29 18 13 8 40 23 60 34 20 12 52 29 71 40 19 11 53 30 75 44 22 13 49 29 60
35 11 5 29 15 40 22 11 7 55 32 97 56 43 23 80 47 84 52 3 5 10 7 15 4 5 -4 9
-2 9 3 0 5 8 12 18 15 9 4 35 17 57 31 22 14 64 37 93 52 28 14 52 31 52 37 0
6 3 8 6 4 3 -3 27 8 52 24 25 16 52 29 59 29 7 0 13 4 13 8 0 5 21 19 46 33
25 13 53 29 62 34 10 6 55 32 102 58 47 26 92 52 100 57 15 10 199 116 290
168 25 14 63 36 85 49 22 12 47 26 55 30 8 4 43 24 78 45 34 21 66 38 70 38 4
0 17 7 27 15 35 27 137 85 150 85 7 0 15 7 19 15 3 8 12 15 19 15 8 0 26 9 41
21 14 11 26 17 26 13 0 -4 8 -1 18 7 9 8 33 23 52 33 19 11 37 22 40 25 3 3
23 15 45 26 22 11 42 22 45 25 7 7 78 48 115 66 17 8 44 24 60 34 17 11 44 27
60 35 17 9 46 25 65 37 19 12 44 26 55 32 26 15 237 136 278 159 18 11 50 29
72 40 22 12 42 24 45 27 3 3 52 33 110 65 58 33 119 68 135 77 17 10 46 26 65
36 19 9 37 20 38 25 2 4 10 7 18 7 8 0 14 5 14 10 0 6 4 10 10 10 8 0 138 72
180 100 8 6 22 13 30 17 8 4 48 26 88 50 41 24 78 43 83 43 5 0 9 5 9 10 0 6
5 10 11 10 6 0 37 15 68 34 93 56 144 86 181 104 19 9 37 20 40 23 3 3 21 14
40 25 19 10 37 21 40 24 3 3 24 18 47 33 23 16 59 49 80 74 21 25 43 51 48 57
20 21 75 116 75 129 0 7 4 17 9 23 5 5 18 47 30 93 l21 84 -1 2536 c-1 2785 3
2605 -61 2739 -48 102 -123 199 -194 252 -47 35 -83 60 -88 60 -2 0 -50 27
-105 60 -56 33 -106 60 -111 60 -6 0 -10 5 -10 10 0 6 -4 10 -10 10 -13 0
-244 133 -248 143 -2 4 -7 7 -12 7 -5 0 -51 25 -104 55 -52 30 -100 55 -105
55 -6 0 -11 3 -11 8 0 4 -15 13 -32 21 -18 8 -35 17 -38 20 -8 10 -152 91
-161 91 -5 0 -9 4 -9 9 0 5 -8 11 -17 14 -21 7 -120 62 -221 123 -40 24 -77
44 -82 44 -5 0 -15 6 -22 13 -7 7 -40 28 -73 46 -82 46 -156 88 -227 130 -18
10 -94 53 -168 96 -74 42 -146 84 -160 93 -14 9 -28 15 -32 14 -5 -1 -8 2 -8
6 0 5 -16 14 -35 22 -19 8 -35 17 -35 22 0 4 -4 8 -9 8 -5 0 -55 27 -111 60
-56 33 -106 60 -111 60 -5 0 -9 5 -9 10 0 6 -6 10 -14 10 -7 0 -30 11 -50 25
-20 13 -36 21 -36 17 0 -4 -4 -2 -8 3 -9 13 -102 68 -102 60 0 -3 -9 4 -20 15
-11 11 -27 20 -35 20 -8 0 -15 4 -15 8 0 5 -16 14 -35 22 -19 8 -35 17 -35 22
0 4 -4 8 -10 8 -5 0 -47 23 -94 50 -47 28 -89 50 -95 50 -6 0 -11 4 -11 9 0 5
-8 11 -17 15 -10 3 -34 15 -53 27 -31 19 -257 149 -348 201 -65 36 -298 171
-337 195 -22 13 -48 26 -57 30 -10 3 -18 9 -18 14 0 5 -5 9 -11 9 -6 0 -38 16
-72 36 -34 20 -78 46 -97 56 -19 11 -60 35 -91 54 -31 19 -62 34 -68 34 -6 0
-11 4 -11 8 0 4 -12 13 -27 20 -16 6 -50 25 -78 42 -27 17 -57 34 -65 37 -8 4
-17 10 -20 13 -12 15 -199 100 -245 111 -84 19 -241 19 -322 -1z"/>
</g>
</svg>
