<svg xmlns="http://www.w3.org/2000/svg" width="40" height="40" viewBox="0 0 40 40"><g transform="translate(-399 -281)"><path d="M34.4,4H5.6A3.676,3.676,0,0,0,2,7.75v22.5A3.676,3.676,0,0,0,5.6,34H34.4A3.676,3.676,0,0,0,38,30.25V7.75A3.676,3.676,0,0,0,34.4,4ZM10.1,28.375H8.3a.92.92,0,0,1-.9-.937V25.562a.92.92,0,0,1,.9-.937h1.8a.92.92,0,0,1,.9.938v1.875A.92.92,0,0,1,10.1,28.375ZM11.9,15.25H8.3a.92.92,0,0,1-.9-.938v-3.75a.92.92,0,0,1,.9-.937h3.6a.92.92,0,0,1,.9.938v3.75A.92.92,0,0,1,11.9,15.25Zm5.4,13.125H15.5a.92.92,0,0,1-.9-.937V25.562a.92.92,0,0,1,.9-.937h1.8a.92.92,0,0,1,.9.938v1.875A.92.92,0,0,1,17.3,28.375Zm7.2,0H22.7a.92.92,0,0,1-.9-.937V25.562a.92.92,0,0,1,.9-.937h1.8a.92.92,0,0,1,.9.938v1.875A.92.92,0,0,1,24.5,28.375Zm7.2,0H29.9a.92.92,0,0,1-.9-.937V25.562a.92.92,0,0,1,.9-.937h1.8a.92.92,0,0,1,.9.938v1.875A.92.92,0,0,1,31.7,28.375Zm0-13.125h-9a.92.92,0,0,1-.9-.938V12.438a.92.92,0,0,1,.9-.937h9a.92.92,0,0,1,.9.938v1.875A.92.92,0,0,1,31.7,15.25Z" transform="translate(399 282)" fill="#9b9ea8"/><rect width="40" height="40" transform="translate(399 281)" fill="none"/></g></svg>