<svg xmlns="http://www.w3.org/2000/svg" width="62.001" height="70" viewBox="0 0 62.001 70">
  <g id="Logo" transform="translate(14.313 -86.522)">
    <path id="Path_23" data-name="Path 23" d="M28.888,69.364,2.112,53.967A4.216,4.216,0,0,1,0,50.32V19.538a4.216,4.216,0,0,1,2.113-3.659L28.888.495a4.253,4.253,0,0,1,4.238,0l26.763,15.4A4.216,4.216,0,0,1,62,19.551V50.32a4.216,4.216,0,0,1-2.113,3.659L33.125,69.364A4.253,4.253,0,0,1,28.888,69.364Z" transform="translate(-14.312 86.593)" fill="#0554f2"/>
    <path id="Path_24" data-name="Path 24" d="M32.466,178.787A10.317,10.317,0,0,1,27.2,177.42a10.1,10.1,0,0,1-3.695-3.81,10.917,10.917,0,0,1-1.341-5.372,10.53,10.53,0,0,1,1.373-5.307,10.345,10.345,0,0,1,3.76-3.744,10.611,10.611,0,0,1,9.515-.456,10.944,10.944,0,0,1,3.531,2.475.439.439,0,0,1,0,.553L37.24,164.3a.455.455,0,0,1-.327.163.4.4,0,0,1-.327-.163,4.947,4.947,0,0,0-6.605-1.042,6.012,6.012,0,0,0-2.583,5.633,5.4,5.4,0,0,0,3.891,4.819,5.031,5.031,0,0,0,5.3-1.367.4.4,0,0,1,.327-.1.319.319,0,0,1,.294.13l3.172,2.214a.439.439,0,0,1,0,.554,12.311,12.311,0,0,1-3.662,2.67A10.1,10.1,0,0,1,32.466,178.787Zm11.706,0a.411.411,0,0,1-.425-.423v-19.5a.411.411,0,0,1,.425-.423h7.423a10.767,10.767,0,0,1,5.33,1.3,9.081,9.081,0,0,1,3.662,3.614,10.658,10.658,0,0,1,1.308,5.242,10.372,10.372,0,0,1-1.341,5.275,9.043,9.043,0,0,1-3.728,3.614,10.931,10.931,0,0,1-5.4,1.3Zm4.643-4.558h2.877a4.939,4.939,0,0,0,2.583-.684,5.046,5.046,0,0,0,1.8-1.986,6.45,6.45,0,0,0,.654-2.93,6.155,6.155,0,0,0-.687-2.93,5.074,5.074,0,0,0-1.864-2.019,5.319,5.319,0,0,0-2.681-.716H48.815Z" transform="translate(-25.366 -46.803)" fill="#fff"/>
  </g>
</svg>
