<svg xmlns="http://www.w3.org/2000/svg" width="40" height="40" viewBox="0 0 40 40"><g transform="translate(-399 -502)"><path d="M9.111,2A3.582,3.582,0,0,0,5.556,5.6V7.4H3.778a1.8,1.8,0,0,0,0,3.6H5.556v3.6H3.778a1.8,1.8,0,0,0,0,3.6H5.556v3.6H3.778a1.8,1.8,0,0,0,0,3.6H5.556V29H3.778a1.8,1.8,0,0,0,0,3.6H5.556v1.8A3.582,3.582,0,0,0,9.111,38H30.444A3.582,3.582,0,0,0,34,34.4V5.6A3.582,3.582,0,0,0,30.444,2Zm4.444,7.2H26a.9.9,0,0,1,.889.9v3.6a.9.9,0,0,1-.889.9H13.556a.9.9,0,0,1-.889-.9V10.1A.9.9,0,0,1,13.556,9.2Zm0,9H26a.9.9,0,0,1,.889.9v1.8a.9.9,0,0,1-.889.9H13.556a.9.9,0,0,1-.889-.9V19.1A.9.9,0,0,1,13.556,18.2Zm0,7.2H26a.9.9,0,0,1,.889.9v1.8A.9.9,0,0,1,26,29H13.556a.9.9,0,0,1-.889-.9V26.3A.9.9,0,0,1,13.556,25.4Z" transform="translate(401 502)" fill="#9b9ea8"/><rect width="40" height="40" transform="translate(399 502)" fill="none"/></g></svg>