<svg xmlns="http://www.w3.org/2000/svg" width="40" height="40" viewBox="0 0 40 40"><g transform="translate(-399 -164)"><path d="M18,1A10.372,10.372,0,0,0,7.5,11.286V13A3.475,3.475,0,0,0,4,16.429V33.571A3.475,3.475,0,0,0,7.5,37h21A3.475,3.475,0,0,0,32,33.571V16.429A3.475,3.475,0,0,0,28.5,13V11.286A10.372,10.372,0,0,0,18,1Zm0,3.429a6.786,6.786,0,0,1,7,6.857V13H11V11.286A6.786,6.786,0,0,1,18,4.429ZM11,23.286A1.715,1.715,0,1,1,9.25,25,1.738,1.738,0,0,1,11,23.286Zm7,0A1.715,1.715,0,1,1,16.25,25,1.738,1.738,0,0,1,18,23.286Zm7,0A1.715,1.715,0,1,1,23.25,25,1.738,1.738,0,0,1,25,23.286Z" transform="translate(401 165)" fill="#9b9ea8"/><rect width="40" height="40" transform="translate(399 164)" fill="none"/></g></svg>