<svg xmlns="http://www.w3.org/2000/svg" width="40" height="40" viewBox="0 0 40 40"><g transform="translate(-399 -623)"><path d="M7,3A4.03,4.03,0,0,0,3,7V35a4.03,4.03,0,0,0,4,4H35a4.03,4.03,0,0,0,4-4V7a4.03,4.03,0,0,0-4-4Zm0,8H35V35H7Zm5,6a1,1,0,0,0-1,1v2a1,1,0,0,0,1,1h2a1,1,0,0,0,1-1V18a1,1,0,0,0-1-1Zm8,0a1,1,0,0,0-1,1v2a1,1,0,0,0,1,1H30a1,1,0,0,0,1-1V18a1,1,0,0,0-1-1Zm-8,8a1,1,0,0,0-1,1v2a1,1,0,0,0,1,1h2a1,1,0,0,0,1-1V26a1,1,0,0,0-1-1Zm8,0a1,1,0,0,0-1,1v2a1,1,0,0,0,1,1H30a1,1,0,0,0,1-1V26a1,1,0,0,0-1-1Z" transform="translate(398 622)" fill="#9b9ea8"/><rect width="40" height="40" transform="translate(399 623)" fill="none"/></g></svg>